# xmcd CD database file
#
# Track frame offsets:
#	182
#	14880
#	29780
#	45110
#	60155
#	73455
#	90817
#	108267
#	125992
#	147107
#	160957
#	173385
#	189642
#	223137
#
# Disc length: 3148 seconds
#
# Revision: 0
# Processed by: cddbd v1.5PL3 Copyright (c) Steve Scherf et al.
# Submitted via: CDex 1.50beta8
#
DISCID=c50c4a0e
DTITLE=さまざまなアーティスト - GOLDEN Jazz BEST1 DISC2
DYEAR=1900
DGENRE=Jazz
TTITLE0=真珠の首飾り Gミラー
TTITLE1=ペンシルヴァニア６−５０００ Gミラー
TTITLE2=ムーンライト・セレナーデ Gミラー
TTITLE3=ビギン･ザ・ビギン Aショー
TTITLE4=愛の夢 Tドーシー
TTITLE5=パリの四月 CベイシーO
TTITLE6=ジャンピン・アット・ザ・ウッドサイド Cベイシー
TTITLE7=ワン・オクロック・ジャンプ Bグッドマン
TTITLE8=A列車で行こう Dエリントン
TTITLE9=スイングがなければ意味がない Dエリントン
TTITLE10=ソフィスティケイテッド・レディ Dエリントン
TTITLE11=イン・ザ・ムード Gミラー
TTITLE12=シング・シング・シング Bグッドマン
TTITLE13=ハワイアン・ウォー・チャント Tドーシー
EXTD=
EXTT0=
EXTT1=
EXTT2=
EXTT3=
EXTT4=
EXTT5=
EXTT6=
EXTT7=
EXTT8=
EXTT9=
EXTT10=
EXTT11=
EXTT12=
EXTT13=
PLAYORDER=
